<svg xmlns="http://www.w3.org/2000/svg" xmlns:xlink="http://www.w3.org/1999/xlink" width="500" zoomAndPan="magnify" viewBox="0 0 375 374.999991" height="500" preserveAspectRatio="xMidYMid meet" version="1.0"><defs><g/><clipPath id="21bc743808"><path d="M 80 106 L 284 106 L 284 296 L 80 296 Z M 80 106 " clip-rule="nonzero"/></clipPath><clipPath id="0baef8f0aa"><path d="M 323.261719 156.664062 L 122.34375 339.269531 L 12.378906 218.277344 L 213.292969 35.667969 Z M 323.261719 156.664062 " clip-rule="nonzero"/></clipPath><clipPath id="e616978a78"><path d="M 323.261719 156.664062 L 122.34375 339.269531 L 12.378906 218.277344 L 213.292969 35.667969 Z M 323.261719 156.664062 " clip-rule="nonzero"/></clipPath><clipPath id="181fc9cb07"><path d="M 323.261719 156.664062 L 122.34375 339.269531 L 12.378906 218.277344 L 213.292969 35.667969 Z M 323.261719 156.664062 " clip-rule="nonzero"/></clipPath><clipPath id="b8e470d0f4"><path d="M 187 106 L 338 106 L 338 256 L 187 256 Z M 187 106 " clip-rule="nonzero"/></clipPath><clipPath id="e5e03c9a86"><path d="M 187.695312 107.53125 L 337.691406 106.808594 L 338.402344 254.632812 L 188.40625 255.355469 Z M 187.695312 107.53125 " clip-rule="nonzero"/></clipPath><clipPath id="2a94ce81ca"><path d="M 187.695312 107.53125 L 336.730469 106.816406 L 337.441406 254.527344 L 188.40625 255.246094 Z M 187.695312 107.53125 " clip-rule="nonzero"/></clipPath><clipPath id="eb512159bb"><path d="M 123 203 L 215 203 L 215 260 L 123 260 Z M 123 203 " clip-rule="nonzero"/></clipPath><clipPath id="d1242a7a44"><path d="M 125.902344 203.894531 L 214.929688 208.144531 L 212.441406 260.261719 L 123.414062 256.011719 Z M 125.902344 203.894531 " clip-rule="nonzero"/></clipPath><clipPath id="740a7a3f85"><path d="M 125.902344 203.894531 L 214.46875 208.125 L 212.011719 259.617188 L 123.441406 255.390625 Z M 125.902344 203.894531 " clip-rule="nonzero"/></clipPath><clipPath id="208e63fb5d"><path d="M 243 166 L 363 166 L 363 286 L 243 286 Z M 243 166 " clip-rule="nonzero"/></clipPath><clipPath id="d3b36b9548"><path d="M 243.835938 256.898438 L 272.175781 166.628906 L 362.445312 194.972656 L 334.101562 285.238281 Z M 243.835938 256.898438 " clip-rule="nonzero"/></clipPath><clipPath id="59c99e146d"><path d="M 243.835938 256.898438 L 272.175781 166.628906 L 362.445312 194.972656 L 334.101562 285.238281 Z M 243.835938 256.898438 " clip-rule="nonzero"/></clipPath></defs><g clip-path="url(#21bc743808)"><g clip-path="url(#0baef8f0aa)"><g clip-path="url(#e616978a78)"><g clip-path="url(#181fc9cb07)"><path fill="#ffffff" d="M 191.351562 136.925781 L 190.6875 108.890625 L 283.175781 112.808594 L 253.140625 140.105469 Z M 111.210938 269.101562 L 109.4375 189.828125 L 165.507812 192.515625 L 163.699219 107.746094 L 135.308594 106.546875 L 136.742188 161.757812 L 80.648438 159.492188 L 82.519531 295.179688 Z M 220.972656 249.628906 L 219.757812 166.390625 L 191.164062 164.535156 L 192.972656 220.507812 L 135.953125 217.769531 L 136.464844 246.15625 Z M 220.972656 249.628906 " fill-opacity="1" fill-rule="nonzero"/></g></g></g></g><g clip-path="url(#b8e470d0f4)"><g clip-path="url(#e5e03c9a86)"><g clip-path="url(#2a94ce81ca)"><path fill="#004aad" d="M 187.695312 107.53125 L 337.691406 106.808594 L 338.402344 254.632812 L 188.40625 255.355469 Z M 187.695312 107.53125 " fill-opacity="1" fill-rule="nonzero"/></g></g></g><path stroke-linecap="butt" transform="matrix(0.751248, 0.00665077, -0.00663946, 0.749971, 168.954661, 193.540828)" fill="none" stroke-linejoin="miter" d="M -0.00076792 2.497751 L 146.754985 2.498449 " stroke="#ffffff" stroke-width="5" stroke-opacity="1" stroke-miterlimit="4"/><g clip-path="url(#eb512159bb)"><g clip-path="url(#d1242a7a44)"><g clip-path="url(#740a7a3f85)"><path fill="#004aad" d="M 125.902344 203.894531 L 214.929688 208.144531 L 212.441406 260.261719 L 123.414062 256.011719 Z M 125.902344 203.894531 " fill-opacity="1" fill-rule="nonzero"/></g></g></g><g fill="#ffffff" fill-opacity="1"><g transform="translate(166.4418, 193.180398)"><g><path d="M 3.523438 -49.761719 L 3.523438 0 L 36.085938 0 L 36.085938 -11.628906 L 15.648438 -11.628906 L 15.648438 -19.523438 L 35.59375 -19.523438 L 35.59375 -31.222656 L 15.648438 -31.222656 L 15.648438 -38.132812 L 36.015625 -38.132812 L 36.015625 -49.761719 Z M 3.523438 -49.761719 "/></g></g></g><g fill="#ffffff" fill-opacity="1"><g transform="translate(205.768051, 193.180398)"><g><path d="M 31.433594 0 L 31.433594 -10.785156 L 23.257812 -10.785156 L 23.257812 -38.625 L 31.433594 -38.625 L 31.433594 -49.621094 L 3.03125 -49.621094 L 3.03125 -38.625 L 11.207031 -38.625 L 11.207031 -10.785156 L 3.03125 -10.785156 L 3.03125 0 Z M 31.433594 0 "/></g></g></g><g fill="#ffffff" fill-opacity="1"><g transform="translate(239.878995, 193.180398)"><g><path d="M 3.523438 -49.335938 L 3.523438 0 L 36.296875 0 L 36.296875 -11.628906 L 15.578125 -11.628906 L 15.578125 -49.335938 Z M 3.523438 -49.335938 "/></g></g></g><g clip-path="url(#208e63fb5d)"><g clip-path="url(#d3b36b9548)"><g clip-path="url(#59c99e146d)"><path fill="#004aad" d="M 243.835938 256.898438 L 272.175781 166.628906 L 362.445312 194.972656 L 334.101562 285.238281 Z M 243.835938 256.898438 " fill-opacity="1" fill-rule="nonzero"/></g></g></g><g fill="#ffffff" fill-opacity="1"><g transform="translate(259.562332, 199.315211)"><g><path d="M 8.4375 9.6875 L 1.15625 9.6875 L 26.4375 -71.703125 L 33.71875 -71.703125 Z M 8.4375 9.6875 "/></g></g></g><g fill="#ffffff" fill-opacity="1"><g transform="translate(296.246687, 199.315211)"><g><path d="M 45.6875 -29.828125 L 5.984375 -11.921875 L 5.984375 -19.671875 L 35.4375 -32.375 L 35.4375 -33.34375 L 5.984375 -46.015625 L 5.984375 -53.75 L 45.6875 -35.84375 Z M 45.6875 -29.828125 "/></g></g></g><g fill="#ffffff" fill-opacity="1"><g transform="translate(32.029503, 202.260704)"><g><path d="M 44.578125 -19.671875 L 44.578125 -11.921875 L 4.828125 -29.828125 L 4.828125 -35.859375 L 44.578125 -53.765625 L 44.578125 -46.015625 L 15.125 -33.359375 L 15.125 -32.375 Z M 44.578125 -19.671875 "/></g></g></g></svg>